<?xml version="1.0" standalone="no"?>
<!DOCTYPE svg PUBLIC "-//W3C//DTD SVG 20010904//EN"
 "http://www.w3.org/TR/2001/REC-SVG-20010904/DTD/svg10.dtd">
<svg version="1.0" xmlns="http://www.w3.org/2000/svg"
 width="1134.000000pt" height="1134.000000pt" viewBox="0 0 1134.000000 1134.000000"
 preserveAspectRatio="xMidYMid meet">

<g transform="translate(0.000000,1134.000000) scale(0.100000,-0.100000)"
fill="#000000" stroke="none">
<path d="M1537 6600 c-365 -66 -652 -333 -739 -687 -25 -103 -29 -293 -9 -385
12 -58 12 -58 63 -73 98 -29 175 -38 313 -38 160 0 230 9 510 63 110 22 247
47 305 55 195 27 422 15 549 -30 52 -18 52 -16 59 163 l5 142 -723 0 -722 0 6
28 c4 15 24 63 46 108 97 200 329 325 545 295 106 -15 200 -53 263 -105 l30
-26 186 60 c102 34 186 65 186 70 0 20 -144 160 -215 209 -151 105 -293 150
-485 156 -69 2 -147 0 -173 -5z"/>
<path d="M3558 6451 c-290 -63 -452 -259 -418 -503 22 -157 118 -260 295 -320
33 -11 132 -35 220 -54 87 -19 183 -45 212 -59 117 -53 126 -172 16 -226 -41
-20 -63 -24 -143 -23 -141 1 -300 50 -443 136 -37 22 -69 39 -71 37 -2 -2 -31
-69 -64 -149 l-61 -145 47 -29 c185 -116 438 -174 667 -155 361 31 574 241
534 527 -23 167 -133 280 -334 342 -38 11 -129 34 -202 50 -154 34 -224 61
-258 102 -29 34 -33 87 -9 123 54 83 297 70 539 -28 l83 -34 60 151 61 151
-71 33 c-124 59 -242 84 -418 88 -126 3 -171 0 -242 -15z"/>
<path d="M5059 6440 c-289 -60 -513 -276 -580 -556 -18 -74 -20 -109 -16 -209
8 -196 65 -337 191 -472 159 -171 354 -253 600 -253 331 0 595 154 729 425 56
115 71 183 71 330 1 152 -14 218 -74 341 -75 153 -239 299 -402 358 -162 59
-351 72 -519 36z m342 -320 c243 -91 341 -389 212 -644 -32 -63 -108 -137
-175 -170 -159 -78 -331 -47 -463 83 -137 135 -170 342 -83 521 92 189 317
283 509 210z"/>
<path d="M9117 6453 c-4 -3 -7 -341 -7 -750 l0 -743 510 0 510 0 0 160 0 160
-320 0 -320 0 0 590 0 590 -183 0 c-101 0 -187 -3 -190 -7z"/>
<path d="M6230 5705 l0 -745 188 2 187 3 3 206 2 206 203 6 c135 3 223 11 265
21 184 46 312 162 365 330 32 101 31 303 -1 391 -46 126 -138 220 -263 271
-114 47 -183 53 -581 54 l-368 0 0 -745z m733 431 c102 -31 150 -99 150 -215
0 -105 -36 -171 -118 -214 -36 -19 -59 -22 -212 -25 l-173 -4 0 236 0 236 153
0 c102 0 169 -5 200 -14z"/>
<path d="M7617 5713 c-174 -406 -317 -742 -317 -746 0 -4 86 -6 192 -5 l192 3
54 138 54 137 322 0 323 0 54 -137 54 -138 198 -3 c122 -1 197 1 197 7 0 10
-59 151 -435 1046 l-180 430 -196 3 -195 2 -317 -737z m607 82 c53 -137 96
-256 96 -262 0 -10 -48 -13 -205 -13 -166 0 -205 3 -205 14 0 7 26 80 59 162
32 82 78 198 101 257 23 60 46 105 50 100 4 -4 51 -120 104 -258z"/>
<path d="M1970 5195 c-53 -7 -193 -31 -311 -54 -266 -50 -412 -65 -547 -58
l-104 5 38 -40 c92 -95 261 -191 406 -230 71 -20 106 -23 238 -22 139 1 164 4
245 28 178 54 349 168 456 302 l49 62 -63 11 c-83 14 -287 12 -407 -4z"/>
</g>
</svg>
